<svg xmlns="http://www.w3.org/2000/svg" viewBox="0 0 140 160"><line x1="124.0" y1="96.0" x2="136.0" y2="96.0" stroke="#FF8F38" stroke-width="5" stroke-linecap="round"/><line x1="116.8" y1="69.0" x2="127.2" y2="63.0" stroke="#FF8F38" stroke-width="5" stroke-linecap="round"/><line x1="97.0" y1="49.2" x2="103.0" y2="38.8" stroke="#FF8F38" stroke-width="5" stroke-linecap="round"/><line x1="70.0" y1="42.0" x2="70.0" y2="30.0" stroke="#FF8F38" stroke-width="5" stroke-linecap="round"/><line x1="43.0" y1="49.2" x2="37.0" y2="38.8" stroke="#FF8F38" stroke-width="5" stroke-linecap="round"/><line x1="23.2" y1="69.0" x2="12.8" y2="63.0" stroke="#FF8F38" stroke-width="5" stroke-linecap="round"/><line x1="16.0" y1="96.0" x2="4.0" y2="96.0" stroke="#FF8F38" stroke-width="5" stroke-linecap="round"/><rect x="44" y="140" width="18" height="9" rx="4.5" fill="#FF8F38"/><rect x="78" y="140" width="18" height="9" rx="4.5" fill="#FF8F38"/><circle cx="70" cy="96" r="46" fill="#FFC79E"/><circle cx="56" cy="90" r="4" fill="#000"/><circle cx="57.3" cy="88.5" r="1.3" fill="#fff"/><circle cx="84" cy="90" r="4" fill="#000"/><circle cx="85.3" cy="88.5" r="1.3" fill="#fff"/><path d="M58 104q12 10 24 0" fill="none" stroke="#000" stroke-width="2.6" stroke-linecap="round"/><circle cx="42" cy="102" r="4.5" fill="#FF8F38" opacity=".55"/><circle cx="98" cy="102" r="4.5" fill="#FF8F38" opacity=".55"/></svg>
