<svg xmlns="http://www.w3.org/2000/svg" viewBox="0 0 140 160"><rect x="44" y="142" width="18" height="9" rx="4.5" fill="#E8B51F"/><rect x="78" y="142" width="18" height="9" rx="4.5" fill="#E8B51F"/><rect x="32" y="40" width="76" height="104" rx="30" fill="#FFE08F"/><circle cx="57" cy="88" r="3.2" fill="#000"/><circle cx="83" cy="88" r="3.2" fill="#000"/><path d="M62 102q8 7 16 0" fill="none" stroke="#000" stroke-width="2.6" stroke-linecap="round"/><circle cx="47" cy="98" r="4.5" fill="#E8B51F" opacity=".55"/><circle cx="93" cy="98" r="4.5" fill="#E8B51F" opacity=".55"/><ellipse cx="70" cy="46" rx="52" ry="11" fill="#E8B51F"/><path d="M42 44q0 -26 28 -26t28 26z" fill="#E8B51F"/><rect x="42" y="38" width="56" height="7" fill="#A687C7"/><path d="M14 132h26l-3 16h-20z" fill="#FF8F38"/><path d="M27 132v-14" stroke="#85D1A6" stroke-width="3" stroke-linecap="round"/><path d="M27 124q-12 -2 -12 -12q10 0 12 12z M27 120q12 -2 12 -12q-10 0 -12 12z" fill="#85D1A6"/></svg>
