<svg xmlns="http://www.w3.org/2000/svg" viewBox="0 0 140 160"><rect x="36" y="140" width="18" height="9" rx="4.5" fill="#E8B51F"/><rect x="70" y="140" width="18" height="9" rx="4.5" fill="#E8B51F"/><circle cx="62" cy="88" r="48" fill="#FFE08F"/><path d="M43 81q5 -6 10 0" fill="none" stroke="#000" stroke-width="2.6" stroke-linecap="round"/><path d="M71 81q5 -6 10 0" fill="none" stroke="#000" stroke-width="2.6" stroke-linecap="round"/><path d="M53 94q9 8 18 0" fill="none" stroke="#000" stroke-width="2.6" stroke-linecap="round"/><circle cx="34" cy="92" r="4.5" fill="#E8B51F" opacity=".55"/><circle cx="90" cy="92" r="4.5" fill="#E8B51F" opacity=".55"/><path d="M92 124q2 -16 19 -16q17 0 19 16z" fill="#E5E0F0" stroke="#A687C7" stroke-width="2.4" stroke-linejoin="round"/><path d="M100 118q11 -6 22 0" fill="none" stroke="#A687C7" stroke-width="2.4" stroke-linecap="round"/><circle cx="111" cy="102" r="5.5" fill="#A687C7"/><path d="M92 124h38l-6 24h-26z" fill="#E8B51F"/><path d="M104 126l2 20M111 126v20M118 126l-2 20" stroke="#FFE08F" stroke-width="2" stroke-linecap="round"/></svg>
