<svg xmlns="http://www.w3.org/2000/svg" viewBox="0 0 140 160"><rect x="40" y="140" width="18" height="9" rx="4.5" fill="#85D1A6"/><rect x="74" y="140" width="18" height="9" rx="4.5" fill="#85D1A6"/><polygon points="66,32 110,126 22,126" fill="#B0E8CC" stroke="#B0E8CC" stroke-width="16" stroke-linejoin="round"/><circle cx="54" cy="92" r="3.2" fill="#000"/><circle cx="78" cy="92" r="3.2" fill="#000"/><path d="M58 105q8 7 16 0" fill="none" stroke="#000" stroke-width="2.6" stroke-linecap="round"/><circle cx="45" cy="102" r="4.5" fill="#85D1A6" opacity=".55"/><circle cx="87" cy="102" r="4.5" fill="#85D1A6" opacity=".55"/><ellipse cx="62" cy="28" rx="30" ry="12" fill="#A687C7" transform="rotate(-8 62 28)"/><circle cx="54" cy="14" r="4" fill="#A687C7"/><g transform="rotate(30 112 100)"><rect x="109" y="70" width="6" height="52" rx="3" fill="#85D1A6"/><rect x="108" y="58" width="8" height="16" rx="3" fill="#A687C7"/><path d="M108 58q4 -14 8 0z" fill="#A687C7"/></g></svg>
